<svg xmlns="http://www.w3.org/2000/svg" width="192" height="192" viewBox="0 0 512 512">
  <defs>
    <linearGradient id="bg" x1="0%" y1="0%" x2="100%" y2="100%">
      <stop offset="0%" style="stop-color:#6366f1"/>
      <stop offset="100%" style="stop-color:#4f46e5"/>
    </linearGradient>
    <linearGradient id="ht" x1="0%" y1="0%" x2="0%" y2="100%">
      <stop offset="0%" style="stop-color:#f472b6"/>
      <stop offset="100%" style="stop-color:#ec4899"/>
    </linearGradient>
  </defs>
  <rect width="512" height="512" fill="url(#bg)"/>
  <g transform="translate(256, 248)">
    <path d="M0 -118 L98 -80 L98 18 Q98 106 0 138 Q-98 106 -98 18 L-98 -80 Z" fill="white" opacity="0.95"/>
  </g>
  <g transform="translate(256, 230)">
    <path d="M0 32 Q-8 24 -28 8 Q-52 -12 -52 -36 Q-52 -56 -36 -56 Q-20 -56 0 -36 Q20 -56 36 -56 Q52 -56 52 -36 Q52 -12 28 8 Q8 24 0 32 Z" fill="url(#ht)" transform="scale(1.1)"/>
  </g>
  <g transform="translate(256, 224)">
    <path d="M-16 4 L-4 16 L20 -12" fill="none" stroke="white" stroke-width="6" stroke-linecap="round" stroke-linejoin="round"/>
  </g>
</svg>
