<svg xmlns="http://www.w3.org/2000/svg" width="128" height="128" viewBox="0 0 512 512">
  <defs>
    <linearGradient id="bg" x1="0%" y1="0%" x2="100%" y2="100%">
      <stop offset="0%" style="stop-color:#6366f1"/>
      <stop offset="100%" style="stop-color:#4f46e5"/>
    </linearGradient>
    <linearGradient id="ht" x1="0%" y1="0%" x2="0%" y2="100%">
      <stop offset="0%" style="stop-color:#f472b6"/>
      <stop offset="100%" style="stop-color:#ec4899"/>
    </linearGradient>
  </defs>
  <rect width="512" height="512" rx="96" fill="url(#bg)"/>
  <g transform="translate(256, 240)">
    <path d="M0 -155 L128 -104 L128 24 Q128 140 0 180 Q-128 140 -128 24 L-128 -104 Z" fill="white" opacity="0.95"/>
  </g>
  <g transform="translate(256, 218)">
    <path d="M0 32 Q-8 24 -28 8 Q-52 -12 -52 -36 Q-52 -56 -36 -56 Q-20 -56 0 -36 Q20 -56 36 -56 Q52 -56 52 -36 Q52 -12 28 8 Q8 24 0 32 Z" fill="url(#ht)" transform="scale(1.4)"/>
  </g>
  <g transform="translate(256, 210)">
    <path d="M-16 4 L-4 16 L20 -12" fill="none" stroke="white" stroke-width="6" stroke-linecap="round" stroke-linejoin="round" transform="scale(1.3)"/>
  </g>
</svg>
