<svg xmlns="http://www.w3.org/2000/svg" width="512" height="512" viewBox="0 0 512 512">
  <defs>
    <linearGradient id="bg" x1="0%" y1="0%" x2="100%" y2="100%">
      <stop offset="0%" style="stop-color:#6366f1"/>
      <stop offset="100%" style="stop-color:#4f46e5"/>
    </linearGradient>
    <linearGradient id="shield" x1="0%" y1="0%" x2="0%" y2="100%">
      <stop offset="0%" style="stop-color:#ffffff;stop-opacity:1"/>
      <stop offset="100%" style="stop-color:#e0e7ff;stop-opacity:1"/>
    </linearGradient>
    <linearGradient id="heart" x1="0%" y1="0%" x2="0%" y2="100%">
      <stop offset="0%" style="stop-color:#f472b6"/>
      <stop offset="100%" style="stop-color:#ec4899"/>
    </linearGradient>
    <filter id="shadow" x="-10%" y="-10%" width="120%" height="130%">
      <feDropShadow dx="0" dy="4" stdDeviation="8" flood-color="#312e81" flood-opacity="0.3"/>
    </filter>
  </defs>
  <rect width="512" height="512" rx="96" fill="url(#bg)"/>
  <circle cx="80" cy="80" r="120" fill="white" opacity="0.04"/>
  <circle cx="440" cy="440" r="100" fill="white" opacity="0.04"/>
  <g filter="shadow" transform="translate(256, 230)">
    <path d="M0 -158 L130 -106 L130 25 Q130 142 0 184 Q-130 142 -130 25 L-130 -106 Z" fill="url(#shield)" opacity="0.95"/>
    <path d="M0 -158 L130 -106 L130 25 Q130 142 0 184 Q-130 142 -130 25 L-130 -106 Z" fill="none" stroke="white" stroke-width="3" opacity="0.6"/>
  </g>
  <g transform="translate(256, 210)">
    <path d="M0 32 Q-8 24 -28 8 Q-52 -12 -52 -36 Q-52 -56 -36 -56 Q-20 -56 0 -36 Q20 -56 36 -56 Q52 -56 52 -36 Q52 -12 28 8 Q8 24 0 32 Z" fill="url(#heart)" transform="scale(1.5)"/>
  </g>
  <g transform="translate(256, 202)">
    <path d="M-16 4 L-4 16 L20 -12" fill="none" stroke="white" stroke-width="6" stroke-linecap="round" stroke-linejoin="round" transform="scale(1.4)"/>
  </g>
  <text x="256" y="438" text-anchor="middle" font-family="'Nunito', 'Segoe UI', Arial, sans-serif" font-weight="800" font-size="50" fill="white" letter-spacing="1">SafeSchool</text>
</svg>
